<?xml version="1.0" encoding="UTF-8" standalone="no"?>
<!DOCTYPE svg PUBLIC "-//W3C//DTD SVG 1.1//EN"
 "http://www.w3.org/Graphics/SVG/1.1/DTD/svg11.dtd">
<!-- Generated by graphviz version 2.26.3 (20100126.1600)
 -->
<!-- Title: G Pages: 1 -->
<svg width="172pt" height="212pt"
 viewBox="0.00 0.00 172.00 212.00" xmlns="http://www.w3.org/2000/svg" xmlns:xlink="http://www.w3.org/1999/xlink">
<g id="graph1" class="graph" transform="scale(1 1) rotate(0) translate(4 208)">
<title>G</title>
<polygon fill="white" stroke="white" points="-4,5 -4,-208 169,-208 169,5 -4,5"/>
<g id="graph2" class="cluster"><title>cluster_Global</title>
<polyline fill="none" stroke="gray" points="20,-8 144,-8 "/>
<path fill="none" stroke="gray" d="M144,-8C150,-8 156,-14 156,-20"/>
<polyline fill="none" stroke="gray" points="156,-20 156,-184 "/>
<path fill="none" stroke="gray" d="M156,-184C156,-190 150,-196 144,-196"/>
<polyline fill="none" stroke="gray" points="144,-196 20,-196 "/>
<path fill="none" stroke="gray" d="M20,-196C14,-196 8,-190 8,-184"/>
<polyline fill="none" stroke="gray" points="8,-184 8,-20 "/>
<path fill="none" stroke="gray" d="M8,-20C8,-14 14,-8 20,-8"/>
<text text-anchor="middle" x="82" y="-182.1" font-family="Times Roman,serif" font-size="11.00" fill="gray">Global</text>
</g>
<g id="graph3" class="cluster"><title>cluster_\phpdevotee</title>
<polyline fill="none" stroke="gray" points="28,-16 136,-16 "/>
<path fill="none" stroke="gray" d="M136,-16C142,-16 148,-22 148,-28"/>
<polyline fill="none" stroke="gray" points="148,-28 148,-154 "/>
<path fill="none" stroke="gray" d="M148,-154C148,-160 142,-166 136,-166"/>
<polyline fill="none" stroke="gray" points="136,-166 28,-166 "/>
<path fill="none" stroke="gray" d="M28,-166C22,-166 16,-160 16,-154"/>
<polyline fill="none" stroke="gray" points="16,-154 16,-28 "/>
<path fill="none" stroke="gray" d="M16,-28C16,-22 22,-16 28,-16"/>
<text text-anchor="middle" x="82" y="-152.1" font-family="Times Roman,serif" font-size="11.00" fill="gray">phpdevotee</text>
</g>
<g id="graph4" class="cluster"><title>cluster_\phpdevotee\calc</title>
<polyline fill="none" stroke="gray" points="36,-24 128,-24 "/>
<path fill="none" stroke="gray" d="M128,-24C134,-24 140,-30 140,-36"/>
<polyline fill="none" stroke="gray" points="140,-36 140,-124 "/>
<path fill="none" stroke="gray" d="M140,-124C140,-130 134,-136 128,-136"/>
<polyline fill="none" stroke="gray" points="128,-136 36,-136 "/>
<path fill="none" stroke="gray" d="M36,-136C30,-136 24,-130 24,-124"/>
<polyline fill="none" stroke="gray" points="24,-124 24,-36 "/>
<path fill="none" stroke="gray" d="M24,-36C24,-30 30,-24 36,-24"/>
<text text-anchor="middle" x="82" y="-122.1" font-family="Times Roman,serif" font-size="11.00" fill="gray">calc</text>
</g>
<g id="graph5" class="cluster"><title>cluster_\phpdevotee\calc\lib</title>
<polyline fill="none" stroke="gray" points="44,-32 120,-32 "/>
<path fill="none" stroke="gray" d="M120,-32C126,-32 132,-38 132,-44"/>
<polyline fill="none" stroke="gray" points="132,-44 132,-94 "/>
<path fill="none" stroke="gray" d="M132,-94C132,-100 126,-106 120,-106"/>
<polyline fill="none" stroke="gray" points="120,-106 44,-106 "/>
<path fill="none" stroke="gray" d="M44,-106C38,-106 32,-100 32,-94"/>
<polyline fill="none" stroke="gray" points="32,-94 32,-44 "/>
<path fill="none" stroke="gray" d="M32,-44C32,-38 38,-32 44,-32"/>
<text text-anchor="middle" x="82" y="-92.1" font-family="Times Roman,serif" font-size="11.00" fill="gray">lib</text>
</g>
<!-- \\phpdevotee\\calc\\lib\\Calculator -->
<g id="node5" class="node"><title>\\phpdevotee\\calc\\lib\\Calculator</title>
<polygon fill="none" stroke="black" points="124,-76 40,-76 40,-40 124,-40 124,-76"/>
<text text-anchor="middle" x="82" y="-55.1" font-family="Courier,monospace" font-size="11.00">Calculator</text>
</g>
</g>
</svg>
